<mxfile host="65bd71144e">
    <diagram id="5ok-PbABE4gsFM7sCyZ-" name="Page-1">
        <mxGraphModel dx="1254" dy="1047" grid="0" gridSize="10" guides="1" tooltips="1" connect="1" arrows="1" fold="1" page="1" pageScale="1" pageWidth="850" pageHeight="1100" background="#ffffff" math="0" shadow="0">
            <root>
                <mxCell id="0"/>
                <mxCell id="1" parent="0"/>
                <mxCell id="3" value="Payment View" style="rounded=0;whiteSpace=wrap;html=1;fontColor=#000000;strokeColor=#000000;fillColor=#FFFFFF;" parent="1" vertex="1">
                    <mxGeometry x="266" y="97" width="70" height="40" as="geometry"/>
                </mxCell>
                <mxCell id="4" value="Server&lt;br&gt;Controller" style="rounded=0;whiteSpace=wrap;html=1;fontColor=#000000;strokeColor=#000000;fillColor=#FFFFFF;" parent="1" vertex="1">
                    <mxGeometry x="526" y="97" width="70" height="40" as="geometry"/>
                </mxCell>
                <mxCell id="5" value="Database" style="rounded=0;whiteSpace=wrap;html=1;fontColor=#000000;strokeColor=#000000;fillColor=#FFFFFF;" parent="1" vertex="1">
                    <mxGeometry x="820" y="97" width="70" height="40" as="geometry"/>
                </mxCell>
                <mxCell id="10" value="" style="endArrow=none;dashed=1;html=1;strokeColor=#000000;" parent="1" edge="1">
                    <mxGeometry width="50" height="50" relative="1" as="geometry">
                        <mxPoint x="38.76" y="730" as="sourcePoint"/>
                        <mxPoint x="38.76" y="177" as="targetPoint"/>
                    </mxGeometry>
                </mxCell>
                <mxCell id="11" value="" style="endArrow=none;dashed=1;html=1;strokeColor=#000000;" parent="1" edge="1">
                    <mxGeometry width="50" height="50" relative="1" as="geometry">
                        <mxPoint x="300.40999999999997" y="718" as="sourcePoint"/>
                        <mxPoint x="300.40999999999997" y="165" as="targetPoint"/>
                    </mxGeometry>
                </mxCell>
                <mxCell id="12" value="" style="endArrow=none;dashed=1;html=1;strokeColor=#000000;" parent="1" edge="1">
                    <mxGeometry width="50" height="50" relative="1" as="geometry">
                        <mxPoint x="560.4100000000001" y="718" as="sourcePoint"/>
                        <mxPoint x="560.4100000000001" y="165" as="targetPoint"/>
                    </mxGeometry>
                </mxCell>
                <mxCell id="13" value="" style="endArrow=none;dashed=1;html=1;strokeColor=#000000;" parent="1" edge="1">
                    <mxGeometry width="50" height="50" relative="1" as="geometry">
                        <mxPoint x="850" y="883" as="sourcePoint"/>
                        <mxPoint x="850.4100000000001" y="166" as="targetPoint"/>
                    </mxGeometry>
                </mxCell>
                <mxCell id="14" value="" style="endArrow=classic;html=1;strokeColor=#000000;" parent="1" edge="1">
                    <mxGeometry width="50" height="50" relative="1" as="geometry">
                        <mxPoint x="39" y="211" as="sourcePoint"/>
                        <mxPoint x="301" y="211" as="targetPoint"/>
                    </mxGeometry>
                </mxCell>
                <mxCell id="15" value="1. Display Payment View" style="edgeLabel;html=1;align=center;verticalAlign=middle;resizable=0;points=[];labelBackgroundColor=none;fontColor=#1C1C1C;" parent="14" vertex="1" connectable="0">
                    <mxGeometry x="-0.0806" y="-2" relative="1" as="geometry">
                        <mxPoint x="-2" y="-9" as="offset"/>
                    </mxGeometry>
                </mxCell>
                <mxCell id="16" value="" style="endArrow=classic;html=1;strokeColor=#000000;" parent="1" edge="1">
                    <mxGeometry width="50" height="50" relative="1" as="geometry">
                        <mxPoint x="300" y="211" as="sourcePoint"/>
                        <mxPoint x="561" y="211" as="targetPoint"/>
                    </mxGeometry>
                </mxCell>
                <mxCell id="17" value="2. Create Payment" style="edgeLabel;html=1;align=center;verticalAlign=middle;resizable=0;points=[];labelBackgroundColor=none;fontColor=#1C1C1C;" parent="16" vertex="1" connectable="0">
                    <mxGeometry x="-0.0806" y="-2" relative="1" as="geometry">
                        <mxPoint x="-2" y="-9" as="offset"/>
                    </mxGeometry>
                </mxCell>
                <mxCell id="18" value="" style="endArrow=classic;html=1;strokeColor=#000000;entryX=0;entryY=0.5;entryDx=0;entryDy=0;dashed=1;" parent="1" target="20" edge="1">
                    <mxGeometry width="50" height="50" relative="1" as="geometry">
                        <mxPoint x="561" y="210.9999999999999" as="sourcePoint"/>
                        <mxPoint x="641" y="211" as="targetPoint"/>
                    </mxGeometry>
                </mxCell>
                <mxCell id="19" value="3. &amp;lt;&amp;lt;Create&amp;gt;&amp;gt;" style="edgeLabel;html=1;align=center;verticalAlign=middle;resizable=0;points=[];labelBackgroundColor=none;fontColor=#1C1C1C;" parent="18" vertex="1" connectable="0">
                    <mxGeometry x="-0.0806" y="-2" relative="1" as="geometry">
                        <mxPoint x="1" y="-9" as="offset"/>
                    </mxGeometry>
                </mxCell>
                <mxCell id="20" value="Payment" style="rounded=0;whiteSpace=wrap;html=1;fontColor=#000000;strokeColor=#000000;fillColor=#FFFFFF;" parent="1" vertex="1">
                    <mxGeometry x="688" y="191" width="70" height="40" as="geometry"/>
                </mxCell>
                <mxCell id="21" value="" style="endArrow=none;dashed=1;html=1;strokeColor=#000000;entryX=0.5;entryY=1;entryDx=0;entryDy=0;" parent="1" target="20" edge="1">
                    <mxGeometry width="50" height="50" relative="1" as="geometry">
                        <mxPoint x="723" y="880" as="sourcePoint"/>
                        <mxPoint x="680.0000000000001" y="242" as="targetPoint"/>
                    </mxGeometry>
                </mxCell>
                <mxCell id="22" value="" style="endArrow=classic;html=1;strokeColor=#000000;" parent="1" edge="1">
                    <mxGeometry width="50" height="50" relative="1" as="geometry">
                        <mxPoint x="40" y="258" as="sourcePoint"/>
                        <mxPoint x="301" y="258" as="targetPoint"/>
                    </mxGeometry>
                </mxCell>
                <mxCell id="23" value="4. View Payment Method" style="edgeLabel;html=1;align=center;verticalAlign=middle;resizable=0;points=[];labelBackgroundColor=none;fontColor=#1C1C1C;" parent="22" vertex="1" connectable="0">
                    <mxGeometry x="-0.0806" y="-2" relative="1" as="geometry">
                        <mxPoint x="-2" y="-9" as="offset"/>
                    </mxGeometry>
                </mxCell>
                <mxCell id="24" value="" style="endArrow=classic;html=1;strokeColor=#000000;" parent="1" edge="1">
                    <mxGeometry width="50" height="50" relative="1" as="geometry">
                        <mxPoint x="300.9999999999999" y="258.0000000000001" as="sourcePoint"/>
                        <mxPoint x="562" y="258" as="targetPoint"/>
                    </mxGeometry>
                </mxCell>
                <mxCell id="25" value="5.&amp;nbsp; Retrieve Payment Methods" style="edgeLabel;html=1;align=center;verticalAlign=middle;resizable=0;points=[];labelBackgroundColor=none;fontColor=#1C1C1C;" parent="24" vertex="1" connectable="0">
                    <mxGeometry x="-0.0806" y="-2" relative="1" as="geometry">
                        <mxPoint x="-2" y="-9" as="offset"/>
                    </mxGeometry>
                </mxCell>
                <mxCell id="26" value="" style="endArrow=classic;html=1;strokeColor=#000000;" parent="1" edge="1">
                    <mxGeometry width="50" height="50" relative="1" as="geometry">
                        <mxPoint x="563" y="258.0000000000001" as="sourcePoint"/>
                        <mxPoint x="850" y="258" as="targetPoint"/>
                    </mxGeometry>
                </mxCell>
                <mxCell id="27" value="6. Retrieve User Payment Credentials from DB" style="edgeLabel;html=1;align=center;verticalAlign=middle;resizable=0;points=[];labelBackgroundColor=none;fontColor=#1C1C1C;" parent="26" vertex="1" connectable="0">
                    <mxGeometry x="-0.0806" y="-2" relative="1" as="geometry">
                        <mxPoint x="-2" y="-9" as="offset"/>
                    </mxGeometry>
                </mxCell>
                <mxCell id="28" value="" style="endArrow=classic;html=1;strokeColor=#000000;" parent="1" edge="1">
                    <mxGeometry width="50" height="50" relative="1" as="geometry">
                        <mxPoint x="38" y="409" as="sourcePoint"/>
                        <mxPoint x="302" y="409.0000000000001" as="targetPoint"/>
                    </mxGeometry>
                </mxCell>
                <mxCell id="29" value="7. Display Payment &lt;br&gt;Methods" style="edgeLabel;html=1;align=center;verticalAlign=middle;resizable=0;points=[];labelBackgroundColor=none;fontColor=#1C1C1C;" parent="28" vertex="1" connectable="0">
                    <mxGeometry x="-0.0806" y="-2" relative="1" as="geometry">
                        <mxPoint x="237" y="-75" as="offset"/>
                    </mxGeometry>
                </mxCell>
                <mxCell id="30" value="" style="endArrow=classic;html=1;fontColor=#1C1C1C;strokeColor=#000000;" parent="1" edge="1">
                    <mxGeometry width="50" height="50" relative="1" as="geometry">
                        <mxPoint x="299" y="304" as="sourcePoint"/>
                        <mxPoint x="299" y="364" as="targetPoint"/>
                        <Array as="points">
                            <mxPoint x="340" y="304"/>
                            <mxPoint x="340" y="364"/>
                        </Array>
                    </mxGeometry>
                </mxCell>
                <mxCell id="31" value="8. Select Payment Method" style="edgeLabel;html=1;align=center;verticalAlign=middle;resizable=0;points=[];labelBackgroundColor=none;fontColor=#1C1C1C;" parent="1" vertex="1" connectable="0">
                    <mxGeometry x="161.9565217391305" y="407" as="geometry">
                        <mxPoint x="4" y="-5" as="offset"/>
                    </mxGeometry>
                </mxCell>
                <mxCell id="32" value="" style="endArrow=classic;html=1;strokeColor=#000000;" parent="1" edge="1">
                    <mxGeometry width="50" height="50" relative="1" as="geometry">
                        <mxPoint x="302" y="409" as="sourcePoint"/>
                        <mxPoint x="559" y="409" as="targetPoint"/>
                    </mxGeometry>
                </mxCell>
                <mxCell id="33" value="9. Save Payment Method" style="edgeLabel;html=1;align=center;verticalAlign=middle;resizable=0;points=[];labelBackgroundColor=none;fontColor=#1C1C1C;" parent="32" vertex="1" connectable="0">
                    <mxGeometry x="-0.0806" y="-2" relative="1" as="geometry">
                        <mxPoint x="5" y="-13" as="offset"/>
                    </mxGeometry>
                </mxCell>
                <mxCell id="34" value="" style="endArrow=classic;html=1;strokeColor=#000000;" parent="1" edge="1">
                    <mxGeometry width="50" height="50" relative="1" as="geometry">
                        <mxPoint x="558" y="477" as="sourcePoint"/>
                        <mxPoint x="720" y="477" as="targetPoint"/>
                    </mxGeometry>
                </mxCell>
                <mxCell id="35" value="10. Save Payment Method" style="edgeLabel;html=1;align=center;verticalAlign=middle;resizable=0;points=[];labelBackgroundColor=none;fontColor=#1C1C1C;" parent="34" vertex="1" connectable="0">
                    <mxGeometry x="-0.0806" y="-2" relative="1" as="geometry">
                        <mxPoint x="5" y="-13" as="offset"/>
                    </mxGeometry>
                </mxCell>
                <mxCell id="36" value="Financial Instution" style="rounded=0;whiteSpace=wrap;html=1;fontColor=#000000;strokeColor=#000000;fillColor=#FFFFFF;" parent="1" vertex="1">
                    <mxGeometry x="959" y="97" width="70" height="40" as="geometry"/>
                </mxCell>
                <mxCell id="37" value="" style="endArrow=none;dashed=1;html=1;strokeColor=#000000;" parent="1" edge="1">
                    <mxGeometry width="50" height="50" relative="1" as="geometry">
                        <mxPoint x="993" y="859" as="sourcePoint"/>
                        <mxPoint x="993.3699999999999" y="147" as="targetPoint"/>
                    </mxGeometry>
                </mxCell>
                <mxCell id="38" value="" style="endArrow=classic;html=1;strokeColor=#000000;" parent="1" edge="1">
                    <mxGeometry width="50" height="50" relative="1" as="geometry">
                        <mxPoint x="40" y="565" as="sourcePoint"/>
                        <mxPoint x="299.96" y="565" as="targetPoint"/>
                    </mxGeometry>
                </mxCell>
                <mxCell id="39" value="11. Confirm Payment" style="edgeLabel;html=1;align=center;verticalAlign=middle;resizable=0;points=[];labelBackgroundColor=none;fontColor=#1C1C1C;" parent="38" vertex="1" connectable="0">
                    <mxGeometry x="-0.0806" y="-2" relative="1" as="geometry">
                        <mxPoint x="5" y="-23" as="offset"/>
                    </mxGeometry>
                </mxCell>
                <mxCell id="40" value="" style="endArrow=classic;html=1;strokeColor=#000000;" parent="1" edge="1">
                    <mxGeometry width="50" height="50" relative="1" as="geometry">
                        <mxPoint x="302.00000000000006" y="564.9999999999998" as="sourcePoint"/>
                        <mxPoint x="555" y="565" as="targetPoint"/>
                    </mxGeometry>
                </mxCell>
                <mxCell id="41" value="12. Make Payment" style="edgeLabel;html=1;align=center;verticalAlign=middle;resizable=0;points=[];labelBackgroundColor=none;fontColor=#1C1C1C;" parent="40" vertex="1" connectable="0">
                    <mxGeometry x="-0.0806" y="-2" relative="1" as="geometry">
                        <mxPoint x="5" y="-23" as="offset"/>
                    </mxGeometry>
                </mxCell>
                <mxCell id="42" value="" style="endArrow=classic;html=1;strokeColor=#000000;" parent="1" edge="1">
                    <mxGeometry width="50" height="50" relative="1" as="geometry">
                        <mxPoint x="560" y="563.9999999999998" as="sourcePoint"/>
                        <mxPoint x="713" y="564" as="targetPoint"/>
                    </mxGeometry>
                </mxCell>
                <mxCell id="43" value="12. Make Payment" style="edgeLabel;html=1;align=center;verticalAlign=middle;resizable=0;points=[];labelBackgroundColor=none;fontColor=#1C1C1C;" parent="42" vertex="1" connectable="0">
                    <mxGeometry x="-0.0806" y="-2" relative="1" as="geometry">
                        <mxPoint x="5" y="-23" as="offset"/>
                    </mxGeometry>
                </mxCell>
                <mxCell id="44" value="" style="endArrow=classic;html=1;strokeColor=#000000;" parent="1" edge="1">
                    <mxGeometry width="50" height="50" relative="1" as="geometry">
                        <mxPoint x="727" y="563.9999999999995" as="sourcePoint"/>
                        <mxPoint x="988" y="564" as="targetPoint"/>
                    </mxGeometry>
                </mxCell>
                <mxCell id="45" value="13. Payment" style="edgeLabel;html=1;align=center;verticalAlign=middle;resizable=0;points=[];labelBackgroundColor=none;fontColor=#1C1C1C;" parent="44" vertex="1" connectable="0">
                    <mxGeometry x="-0.0806" y="-2" relative="1" as="geometry">
                        <mxPoint x="52" y="-22" as="offset"/>
                    </mxGeometry>
                </mxCell>
                <mxCell id="48" value="" style="endArrow=classic;html=1;strokeColor=#000000;" parent="1" edge="1">
                    <mxGeometry width="50" height="50" relative="1" as="geometry">
                        <mxPoint x="725" y="862.9999999999995" as="sourcePoint"/>
                        <mxPoint x="850" y="863" as="targetPoint"/>
                    </mxGeometry>
                </mxCell>
                <mxCell id="49" value="16. Save Payment" style="edgeLabel;html=1;align=center;verticalAlign=middle;resizable=0;points=[];labelBackgroundColor=none;fontColor=#1C1C1C;" parent="48" vertex="1" connectable="0">
                    <mxGeometry x="-0.0806" y="-2" relative="1" as="geometry">
                        <mxPoint x="5" y="-23" as="offset"/>
                    </mxGeometry>
                </mxCell>
                <mxCell id="50" value="14. Verify Payment" style="edgeLabel;html=1;align=center;verticalAlign=middle;resizable=0;points=[];labelBackgroundColor=none;fontColor=#1C1C1C;" parent="1" vertex="1" connectable="0">
                    <mxGeometry x="1087" y="613.9999999999998" as="geometry"/>
                </mxCell>
                <mxCell id="51" value="" style="endArrow=classic;html=1;fontColor=#1C1C1C;strokeColor=#000000;" parent="1" edge="1">
                    <mxGeometry width="50" height="50" relative="1" as="geometry">
                        <mxPoint x="994" y="584" as="sourcePoint"/>
                        <mxPoint x="994" y="644" as="targetPoint"/>
                        <Array as="points">
                            <mxPoint x="1035" y="584"/>
                            <mxPoint x="1035" y="644"/>
                        </Array>
                    </mxGeometry>
                </mxCell>
                <mxCell id="52" value="" style="endArrow=classic;html=1;fontColor=#1C1C1C;strokeColor=#000000;" parent="1" edge="1">
                    <mxGeometry width="50" height="50" relative="1" as="geometry">
                        <mxPoint x="994" y="696" as="sourcePoint"/>
                        <mxPoint x="994" y="756" as="targetPoint"/>
                        <Array as="points">
                            <mxPoint x="1035" y="696"/>
                            <mxPoint x="1035" y="756"/>
                        </Array>
                    </mxGeometry>
                </mxCell>
                <mxCell id="53" value="15. Display Result" style="edgeLabel;html=1;align=center;verticalAlign=middle;resizable=0;points=[];labelBackgroundColor=none;fontColor=#1C1C1C;" parent="1" vertex="1" connectable="0">
                    <mxGeometry x="1092" y="643.9999999999998" as="geometry">
                        <mxPoint x="-4" y="84" as="offset"/>
                    </mxGeometry>
                </mxCell>
                <mxCell id="54" value="&lt;font color=&quot;#000000&quot;&gt;Created By: Alexander Kruger&lt;/font&gt;" style="text;html=1;align=center;verticalAlign=middle;resizable=0;points=[];autosize=1;strokeColor=none;fillColor=none;" vertex="1" parent="1">
                    <mxGeometry x="867" y="932" width="170" height="20" as="geometry"/>
                </mxCell>
                <mxCell id="55" value="User" style="rounded=0;whiteSpace=wrap;html=1;fontColor=#000000;strokeColor=#000000;fillColor=#FFFFFF;" vertex="1" parent="1">
                    <mxGeometry x="4" y="97" width="70" height="40" as="geometry"/>
                </mxCell>
            </root>
        </mxGraphModel>
    </diagram>
</mxfile>